<svg xmlns="http://www.w3.org/2000/svg" height="512pt" viewBox="0 -6 512.00012 512" width="512pt"><path d="m312 461.921875-71.816406-47.875 8.878906-13.3125 62.9375 41.960937 62.9375-41.960937 8.878906 13.3125zm0 0"></path><path d="m470.847656 127.566406c-30.085937-4.367187-59.480468-12.621094-87.449218-24.550781-25.320313-10.742187-49.292969-24.40625-71.4375-40.71875-46.8125 34.394531-101.332032 56.804687-158.800782 65.269531l-2.320312-15.832031c56.816406-8.355469 110.585937-30.984375 156.28125-65.765625l4.878906-3.71875 4.800781 3.71875c22.394531 17.113281 46.851563 31.34375 72.800781 42.351562 26.695313 11.390626 54.761719 19.269532 83.488282 23.441407zm0 0"></path><path d="m368 298.769531h-32v-16h32c4.417969 0 8-3.582031 8-8s-3.582031-8-8-8h-16c-13.253906 0-24-10.746093-24-24 0-13.257812 10.746094-24 24-24h32v16h-32c-4.417969 0-8 3.582031-8 8s3.582031 8 8 8h16c13.253906 0 24 10.742188 24 24 0 13.253907-10.746094 24-24 24zm0 0"></path><path d="m352 202.769531h16v24h-16zm0 0"></path><path d="m352 290.769531h16v24h-16zm0 0"></path><path d="m499.929688 82.464844c-33.675782-2.378906-66.714844-10.359375-97.761719-23.617188-31.074219-13.167968-59.734375-31.425781-84.800781-54.023437l-5.367188-4.824219-5.359375 4.800781c-50.578125 45.382813-114.789063 72.695313-182.5625 77.648438l-12.085937.800781v55.519531h-33.128907c-4.027343-15.605469-19.03125-25.777343-35.015625-23.746093s-27.96875 15.628906-27.96875 31.746093c0 16.113281 11.984375 29.714844 27.96875 31.742188 15.984375 2.03125 30.988282-8.140625 35.015625-23.742188h133.824219l24 24h59.3125v40h-68.6875l-24-24h-203.3125v16h132.6875l72 72h91.3125v40h-132.246094l-32.648437-39.203125c8.824219-13.917968 5.894531-32.234375-6.828125-42.710937-12.722656-10.476563-31.257813-9.839844-43.226563 1.492187-11.972656 11.328125-13.628906 29.800782-3.867187 43.078125 9.761718 13.28125 27.886718 17.210938 42.273437 9.167969l23.464844 28.175781h-142.921875v16h232.457031l-28.578125 40h-109.015625c-4.027343-15.605469-19.03125-25.777343-35.015625-23.746093s-27.96875 15.628906-27.96875 31.746093c0 16.113281 11.984375 29.714844 27.96875 31.742188 15.984375 2.03125 30.988282-8.140625 35.015625-23.742188h76.175781c14.917969 17.625 32.21875 33.089844 51.410157 45.933594l89.550781 59.664063 89.550781-59.679688c69.066407-45.957031 110.53125-123.441406 110.449219-206.398438v-150.992187zm-451.929688 80.304687c-8.835938 0-16-7.164062-16-16 0-8.839843 7.164062-16 16-16s16 7.160157 16 16c0 8.835938-7.164062 16-16 16zm56 120c-8.835938 0-16-7.164062-16-16 0-8.839843 7.164062-16 16-16s16 7.160157 16 16c0 8.835938-7.164062 16-16 16zm-40 120c-8.835938 0-16-7.164062-16-16 0-8.839843 7.164062-16 16-16s16 7.160157 16 16c0 8.835938-7.164062 16-16 16zm147.3125-136-56-56h41.375l24 24h75.3125v32zm284.6875-32.480469c.082031 77.609376-38.707031 150.105469-103.320312 193.101563l-80.679688 53.777344-80.664062-53.761719c-14.109376-9.445312-27.15625-20.386719-38.910157-32.636719h19.695313l40-56h43.878906v72h16v-42.082031c50.296875 22.023438 109.128906 7.101562 142.84375-36.238281 33.71875-43.339844 33.71875-104.03125 0-147.371094-33.714844-43.335937-92.546875-58.261719-142.84375-36.238281v-42.070313h-16v56h-52.6875l-24-24h-91.3125v-40.554687c67.894531-5.5625 132.296875-32.445313 184-76.796875 25.089844 21.628906 53.394531 39.222656 83.894531 52.148437 31.816407 13.582032 65.621094 21.90625 100.105469 24.648438zm-136 112.480469c37.5625-.015625 70.972656-23.867187 83.1875-59.386719 12.214844-35.519531.535156-74.875-29.074219-97.984374-29.609375-23.113282-70.625-24.882813-102.113281-4.40625v-18.222657c43.757812-23.070312 97.710938-12.121093 129.015625 26.175781 31.308594 38.296876 31.308594 93.347657 0 131.644532-31.304687 38.296875-85.257813 49.246094-129.015625 26.179687v-18.226562c14.269531 9.324219 30.957031 14.265625 48 14.226562zm-48-34.449219v-107.105468c28.835938-25.914063 73.011719-24.34375 99.933594 3.554687 26.921875 27.894531 26.921875 72.101563 0 99.996094-26.921875 27.898437-71.097656 29.46875-99.933594 3.554687zm0 0"></path></svg>